# xmcd
#
# Track frame offsets: 
#        150
#        12567
#        22497
#        33202
#        47007
#        59935
#        74765
#        84495
#        96062
#        109342
#        121100
#        141115
#        161102
#        180637
#
# Disc length: 2780 seconds
#
# Revision: 2
# Processed by: cddbd v1.5.2PL0 Copyright (c) Steve Scherf et al.
# Submitted via: ExactAudioCopy v0.99pb4
#
DISCID=ce0ada0e
DTITLE=Willie Dixon - the original wang dang doodle
DYEAR=1995
DGENRE=Blues
TTITLE0=Wang Dang Doodle
TTITLE1=So long
TTITLE2=Violent love
TTITLE3=Walking the blues
TTITLE4=Crazy for my baby
TTITLE5=This pain in my heart
TTITLE6=Twenty-nine ways to my baby's door
TTITLE7=Al l the time
TTITLE8=Tail dragger
TTITLE9=Wrinkles
TTITLE10=Weak brain, narrow mind
TTITLE11=It don't make sense
TTITLE12=I just want to make love to you
TTITLE13=Dustin' off the bass
EXTD=
EXTT0=
EXTT1=
EXTT2=
EXTT3=
EXTT4=
EXTT5=
EXTT6=
EXTT7=
EXTT8=
EXTT9=
EXTT10=
EXTT11=
EXTT12=
EXTT13=
PLAYORDER=
